<mxfile host="65bd71144e">
    <diagram id="B9EBADVPxKGoa4j-UgvZ" name="第 1 页">
        <mxGraphModel dx="663" dy="680" grid="1" gridSize="10" guides="1" tooltips="1" connect="1" arrows="1" fold="1" page="1" pageScale="1" pageWidth="827" pageHeight="1169" math="0" shadow="0">
            <root>
                <mxCell id="0"/>
                <mxCell id="1" parent="0"/>
                <mxCell id="2" value="" style="rounded=0;whiteSpace=wrap;html=1;" vertex="1" parent="1">
                    <mxGeometry x="150" y="420" width="20" height="210" as="geometry"/>
                </mxCell>
                <mxCell id="3" value="" style="rounded=0;whiteSpace=wrap;html=1;" vertex="1" parent="1">
                    <mxGeometry x="630" y="270" width="20" height="360" as="geometry"/>
                </mxCell>
                <mxCell id="4" value="" style="rounded=0;whiteSpace=wrap;html=1;" vertex="1" parent="1">
                    <mxGeometry x="155" y="180" width="10" height="110" as="geometry"/>
                </mxCell>
                <mxCell id="5" value="" style="rounded=0;whiteSpace=wrap;html=1;" vertex="1" parent="1">
                    <mxGeometry x="630" y="310" width="20" height="10" as="geometry"/>
                </mxCell>
                <mxCell id="6" value="Grammar" style="shape=umlLifeline;perimeter=lifelinePerimeter;whiteSpace=wrap;html=1;container=1;collapsible=0;recursiveResize=0;outlineConnect=0;" vertex="1" parent="1">
                    <mxGeometry x="260" y="100" width="155" height="810" as="geometry"/>
                </mxCell>
                <mxCell id="7" value="" style="rounded=0;whiteSpace=wrap;html=1;" vertex="1" parent="6">
                    <mxGeometry x="45" y="120" width="10" height="30" as="geometry"/>
                </mxCell>
                <mxCell id="8" value="GrammarLR1" style="shape=umlLifeline;perimeter=lifelinePerimeter;whiteSpace=wrap;html=1;container=1;collapsible=0;recursiveResize=0;outlineConnect=0;" vertex="1" parent="1">
                    <mxGeometry x="110" y="100" width="100" height="540" as="geometry"/>
                </mxCell>
                <mxCell id="9" value="" style="edgeStyle=elbowEdgeStyle;fontSize=12;html=1;endArrow=blockThin;endFill=1;" edge="1" parent="8" target="34">
                    <mxGeometry width="160" relative="1" as="geometry">
                        <mxPoint x="50" y="350" as="sourcePoint"/>
                        <mxPoint x="130" y="400" as="targetPoint"/>
                        <Array as="points">
                            <mxPoint x="610" y="350"/>
                            <mxPoint x="560" y="360"/>
                            <mxPoint x="410" y="380"/>
                            <mxPoint x="110" y="370"/>
                        </Array>
                    </mxGeometry>
                </mxCell>
                <mxCell id="10" value="输入项目集簇以及符号和产生式" style="edgeLabel;html=1;align=center;verticalAlign=middle;resizable=0;points=[];" vertex="1" connectable="0" parent="9">
                    <mxGeometry x="0.4093" y="1" relative="1" as="geometry">
                        <mxPoint x="-47" y="1" as="offset"/>
                    </mxGeometry>
                </mxCell>
                <mxCell id="11" value="Item" style="shape=umlLifeline;perimeter=lifelinePerimeter;whiteSpace=wrap;html=1;container=1;collapsible=0;recursiveResize=0;outlineConnect=0;" vertex="1" parent="1">
                    <mxGeometry x="414" y="210" width="100" height="430" as="geometry"/>
                </mxCell>
                <mxCell id="12" value="ItemSet" style="shape=umlLifeline;perimeter=lifelinePerimeter;whiteSpace=wrap;html=1;container=1;collapsible=0;recursiveResize=0;outlineConnect=0;" vertex="1" parent="1">
                    <mxGeometry x="550" y="210" width="180" height="430" as="geometry"/>
                </mxCell>
                <mxCell id="13" value="输入文法" style="shape=umlLifeline;participant=umlActor;perimeter=lifelinePerimeter;whiteSpace=wrap;html=1;container=1;collapsible=0;recursiveResize=0;verticalAlign=top;spacingTop=36;outlineConnect=0;" vertex="1" parent="1">
                    <mxGeometry x="10" y="100" width="30" height="540" as="geometry"/>
                </mxCell>
                <mxCell id="15" value="" style="edgeStyle=elbowEdgeStyle;fontSize=12;html=1;endArrow=blockThin;endFill=1;" edge="1" parent="1">
                    <mxGeometry width="160" relative="1" as="geometry">
                        <mxPoint x="25" y="180" as="sourcePoint"/>
                        <mxPoint x="155" y="180" as="targetPoint"/>
                        <Array as="points"/>
                    </mxGeometry>
                </mxCell>
                <mxCell id="16" value="输入" style="edgeLabel;html=1;align=center;verticalAlign=middle;resizable=0;points=[];" vertex="1" connectable="0" parent="15">
                    <mxGeometry x="-0.1714" relative="1" as="geometry">
                        <mxPoint as="offset"/>
                    </mxGeometry>
                </mxCell>
                <mxCell id="17" value="" style="edgeStyle=elbowEdgeStyle;fontSize=12;html=1;endArrow=blockThin;endFill=1;" edge="1" parent="1">
                    <mxGeometry width="160" relative="1" as="geometry">
                        <mxPoint x="160" y="220" as="sourcePoint"/>
                        <mxPoint x="310" y="220" as="targetPoint"/>
                    </mxGeometry>
                </mxCell>
                <mxCell id="18" value="处理输入文法" style="edgeLabel;html=1;align=center;verticalAlign=middle;resizable=0;points=[];" vertex="1" connectable="0" parent="17">
                    <mxGeometry x="-0.16" y="-1" relative="1" as="geometry">
                        <mxPoint as="offset"/>
                    </mxGeometry>
                </mxCell>
                <mxCell id="19" value="返回结果" style="html=1;verticalAlign=bottom;endArrow=open;dashed=1;endSize=8;" edge="1" parent="1" source="6" target="8">
                    <mxGeometry relative="1" as="geometry">
                        <mxPoint x="240" y="280" as="sourcePoint"/>
                        <mxPoint x="160" y="280" as="targetPoint"/>
                        <Array as="points">
                            <mxPoint x="270" y="250"/>
                        </Array>
                    </mxGeometry>
                </mxCell>
                <mxCell id="20" value="" style="edgeStyle=elbowEdgeStyle;fontSize=12;html=1;endArrow=blockThin;endFill=1;dashed=1;" edge="1" parent="1" source="12" target="8">
                    <mxGeometry width="160" relative="1" as="geometry">
                        <mxPoint x="480" y="460" as="sourcePoint"/>
                        <mxPoint x="640" y="460" as="targetPoint"/>
                        <Array as="points">
                            <mxPoint x="600" y="450"/>
                            <mxPoint x="440" y="440"/>
                            <mxPoint x="530" y="460"/>
                            <mxPoint x="360" y="400"/>
                            <mxPoint x="330" y="380"/>
                        </Array>
                    </mxGeometry>
                </mxCell>
                <mxCell id="21" value="汇总为项目集簇" style="edgeLabel;html=1;align=center;verticalAlign=middle;resizable=0;points=[];" vertex="1" connectable="0" parent="20">
                    <mxGeometry x="0.6886" y="3" relative="1" as="geometry">
                        <mxPoint x="12" y="-8" as="offset"/>
                    </mxGeometry>
                </mxCell>
                <mxCell id="26" value="" style="rounded=0;whiteSpace=wrap;html=1;" vertex="1" parent="1">
                    <mxGeometry x="454" y="280" width="20" height="350" as="geometry"/>
                </mxCell>
                <mxCell id="27" value="" style="endArrow=classic;html=1;" edge="1" parent="1" target="12">
                    <mxGeometry width="50" height="50" relative="1" as="geometry">
                        <mxPoint x="160" y="270" as="sourcePoint"/>
                        <mxPoint x="280" y="270" as="targetPoint"/>
                    </mxGeometry>
                </mxCell>
                <mxCell id="28" value="处理" style="edgeLabel;html=1;align=center;verticalAlign=middle;resizable=0;points=[];" vertex="1" connectable="0" parent="27">
                    <mxGeometry x="-0.0991" y="-1" relative="1" as="geometry">
                        <mxPoint as="offset"/>
                    </mxGeometry>
                </mxCell>
                <mxCell id="29" value="" style="endArrow=classic;html=1;entryX=1;entryY=0;entryDx=0;entryDy=0;" edge="1" parent="1" target="26">
                    <mxGeometry width="50" height="50" relative="1" as="geometry">
                        <mxPoint x="640" y="280" as="sourcePoint"/>
                        <mxPoint x="530" y="250" as="targetPoint"/>
                    </mxGeometry>
                </mxCell>
                <mxCell id="30" value="构建" style="edgeLabel;html=1;align=center;verticalAlign=middle;resizable=0;points=[];" vertex="1" connectable="0" parent="29">
                    <mxGeometry x="0.1325" relative="1" as="geometry">
                        <mxPoint as="offset"/>
                    </mxGeometry>
                </mxCell>
                <mxCell id="31" value="" style="edgeStyle=none;html=1;" edge="1" parent="1">
                    <mxGeometry relative="1" as="geometry">
                        <mxPoint x="640" y="340" as="sourcePoint"/>
                        <mxPoint x="640" y="370" as="targetPoint"/>
                        <Array as="points">
                            <mxPoint x="680" y="340"/>
                            <mxPoint x="680" y="370"/>
                        </Array>
                    </mxGeometry>
                </mxCell>
                <mxCell id="32" value="闭包" style="edgeLabel;html=1;align=center;verticalAlign=middle;resizable=0;points=[];" vertex="1" connectable="0" parent="31">
                    <mxGeometry y="-2" relative="1" as="geometry">
                        <mxPoint as="offset"/>
                    </mxGeometry>
                </mxCell>
                <mxCell id="33" value="归类" style="edgeStyle=elbowEdgeStyle;fontSize=12;html=1;endArrow=blockThin;endFill=1;elbow=horizontal;dashed=1" edge="1" parent="1" source="11" target="12">
                    <mxGeometry width="160" relative="1" as="geometry">
                        <mxPoint x="460" y="420" as="sourcePoint"/>
                        <mxPoint x="620" y="420" as="targetPoint"/>
                        <Array as="points">
                            <mxPoint x="520" y="310"/>
                            <mxPoint x="520" y="330"/>
                            <mxPoint x="560" y="405"/>
                            <mxPoint x="530" y="420"/>
                        </Array>
                    </mxGeometry>
                </mxCell>
                <mxCell id="34" value="ACTION表" style="shape=umlLifeline;perimeter=lifelinePerimeter;whiteSpace=wrap;html=1;container=1;collapsible=0;recursiveResize=0;outlineConnect=0;" vertex="1" parent="1">
                    <mxGeometry x="730" y="400" width="100" height="230" as="geometry"/>
                </mxCell>
                <mxCell id="42" value="" style="html=1;points=[];perimeter=orthogonalPerimeter;" vertex="1" parent="34">
                    <mxGeometry x="45" y="50" width="10" height="160" as="geometry"/>
                </mxCell>
                <mxCell id="35" value="GOTO表" style="shape=umlLifeline;perimeter=lifelinePerimeter;whiteSpace=wrap;html=1;container=1;collapsible=0;recursiveResize=0;outlineConnect=0;" vertex="1" parent="1">
                    <mxGeometry x="850" y="440" width="100" height="190" as="geometry"/>
                </mxCell>
                <mxCell id="39" value="" style="html=1;points=[];perimeter=orthogonalPerimeter;" vertex="1" parent="35">
                    <mxGeometry x="45" y="52.5" width="10" height="117.5" as="geometry"/>
                </mxCell>
                <mxCell id="36" value="总控程序" style="shape=umlLifeline;perimeter=lifelinePerimeter;whiteSpace=wrap;html=1;container=1;collapsible=0;recursiveResize=0;outlineConnect=0;" vertex="1" parent="1">
                    <mxGeometry x="1000" y="460" width="100" height="170" as="geometry"/>
                </mxCell>
                <mxCell id="40" value="" style="html=1;points=[];perimeter=orthogonalPerimeter;" vertex="1" parent="36">
                    <mxGeometry x="45" y="50" width="10" height="120" as="geometry"/>
                </mxCell>
                <mxCell id="37" value="" style="edgeStyle=elbowEdgeStyle;fontSize=12;html=1;endArrow=blockThin;endFill=1;exitX=1;exitY=0.324;exitDx=0;exitDy=0;exitPerimeter=0;" edge="1" parent="1" source="2">
                    <mxGeometry width="160" relative="1" as="geometry">
                        <mxPoint x="280" y="490" as="sourcePoint"/>
                        <mxPoint x="899.5" y="490" as="targetPoint"/>
                        <Array as="points">
                            <mxPoint x="870" y="490"/>
                            <mxPoint x="850" y="490"/>
                            <mxPoint x="830" y="490"/>
                            <mxPoint x="780" y="490"/>
                            <mxPoint x="730" y="390"/>
                            <mxPoint x="680" y="400"/>
                            <mxPoint x="530" y="420"/>
                            <mxPoint x="230" y="410"/>
                        </Array>
                    </mxGeometry>
                </mxCell>
                <mxCell id="38" value="输入项目集簇以及符号和产生式" style="edgeLabel;html=1;align=center;verticalAlign=middle;resizable=0;points=[];" vertex="1" connectable="0" parent="37">
                    <mxGeometry x="0.4093" y="1" relative="1" as="geometry">
                        <mxPoint x="-135" y="1" as="offset"/>
                    </mxGeometry>
                </mxCell>
                <mxCell id="44" value="" style="edgeStyle=elbowEdgeStyle;fontSize=12;html=1;endArrow=blockThin;endFill=1;entryX=0.9;entryY=0.631;entryDx=0;entryDy=0;entryPerimeter=0;" edge="1" parent="1" target="42">
                    <mxGeometry width="160" relative="1" as="geometry">
                        <mxPoint x="1050" y="550" as="sourcePoint"/>
                        <mxPoint x="910" y="550" as="targetPoint"/>
                    </mxGeometry>
                </mxCell>
                <mxCell id="45" value="查询" style="edgeLabel;html=1;align=center;verticalAlign=middle;resizable=0;points=[];" vertex="1" connectable="0" parent="44">
                    <mxGeometry x="-0.2733" y="1" relative="1" as="geometry">
                        <mxPoint as="offset"/>
                    </mxGeometry>
                </mxCell>
                <mxCell id="46" value="" style="edgeStyle=elbowEdgeStyle;fontSize=12;html=1;endArrow=blockThin;endFill=1;" edge="1" parent="1">
                    <mxGeometry width="160" relative="1" as="geometry">
                        <mxPoint x="1050" y="560" as="sourcePoint"/>
                        <mxPoint x="900" y="560" as="targetPoint"/>
                    </mxGeometry>
                </mxCell>
                <mxCell id="47" value="查询" style="edgeLabel;html=1;align=center;verticalAlign=middle;resizable=0;points=[];" vertex="1" connectable="0" parent="46">
                    <mxGeometry x="-0.3733" y="2" relative="1" as="geometry">
                        <mxPoint as="offset"/>
                    </mxGeometry>
                </mxCell>
                <mxCell id="48" value="return" style="html=1;verticalAlign=bottom;endArrow=open;dashed=1;endSize=8;" edge="1" parent="1">
                    <mxGeometry relative="1" as="geometry">
                        <mxPoint x="780" y="580" as="sourcePoint"/>
                        <mxPoint x="1050" y="580" as="targetPoint"/>
                    </mxGeometry>
                </mxCell>
                <mxCell id="49" value="返回结果" style="edgeLabel;html=1;align=center;verticalAlign=middle;resizable=0;points=[];" vertex="1" connectable="0" parent="48">
                    <mxGeometry x="0.0715" y="3" relative="1" as="geometry">
                        <mxPoint x="-11" y="-7" as="offset"/>
                    </mxGeometry>
                </mxCell>
                <mxCell id="50" value="return" style="html=1;verticalAlign=bottom;endArrow=open;dashed=1;endSize=8;" edge="1" parent="1">
                    <mxGeometry relative="1" as="geometry">
                        <mxPoint x="900" y="590" as="sourcePoint"/>
                        <mxPoint x="1053" y="590" as="targetPoint"/>
                    </mxGeometry>
                </mxCell>
                <mxCell id="51" value="返回结果" style="edgeLabel;html=1;align=center;verticalAlign=middle;resizable=0;points=[];" vertex="1" connectable="0" parent="50">
                    <mxGeometry x="0.0715" y="3" relative="1" as="geometry">
                        <mxPoint y="-2" as="offset"/>
                    </mxGeometry>
                </mxCell>
                <mxCell id="43" value="调用" style="edgeStyle=elbowEdgeStyle;fontSize=12;html=1;endArrow=blockThin;endFill=1;entryX=0.5;entryY=0.375;entryDx=0;entryDy=0;entryPerimeter=0;" edge="1" parent="1" source="8" target="40">
                    <mxGeometry width="160" relative="1" as="geometry">
                        <mxPoint x="160" y="530" as="sourcePoint"/>
                        <mxPoint x="680" y="750" as="targetPoint"/>
                        <Array as="points">
                            <mxPoint x="190" y="555"/>
                            <mxPoint x="250" y="550"/>
                        </Array>
                    </mxGeometry>
                </mxCell>
                <mxCell id="14" value="输入符号串" style="edgeStyle=elbowEdgeStyle;fontSize=12;html=1;endArrow=blockThin;endFill=1;" edge="1" parent="1" target="8" source="13">
                    <mxGeometry width="160" relative="1" as="geometry">
                        <mxPoint x="60" y="590" as="sourcePoint"/>
                        <mxPoint x="220" y="590" as="targetPoint"/>
                        <Array as="points">
                            <mxPoint x="90" y="550"/>
                            <mxPoint x="20" y="590"/>
                            <mxPoint x="150" y="580"/>
                        </Array>
                    </mxGeometry>
                </mxCell>
            </root>
        </mxGraphModel>
    </diagram>
</mxfile>